<mxfile host="app.diagrams.net" modified="2021-01-04T12:30:31.270Z" agent="5.0 (Windows NT 10.0; Win64; x64) AppleWebKit/537.36 (KHTML, like Gecko) Chrome/87.0.4280.88 Safari/537.36" etag="GEcKRlslCUEgDKp10qw6" version="14.1.3" type="github">
  <diagram id="gG7oMvfesQ3UNzvVdMt5" name="Page-1">
    <mxGraphModel dx="1673" dy="908" grid="1" gridSize="10" guides="1" tooltips="1" connect="1" arrows="1" fold="1" page="1" pageScale="1" pageWidth="827" pageHeight="1169" math="0" shadow="0">
      <root>
        <mxCell id="0" />
        <mxCell id="1" parent="0" />
        <mxCell id="l8qZVdRTa9FN8ElazUqD-1" value="" style="rounded=0;whiteSpace=wrap;html=1;dashed=1;fillColor=none;" vertex="1" parent="1">
          <mxGeometry x="760" y="1046.25" width="380" height="290" as="geometry" />
        </mxCell>
        <mxCell id="l8qZVdRTa9FN8ElazUqD-2" style="edgeStyle=orthogonalEdgeStyle;rounded=1;orthogonalLoop=1;jettySize=auto;html=1;entryX=0;entryY=0.5;entryDx=0;entryDy=0;" edge="1" parent="1" source="l8qZVdRTa9FN8ElazUqD-3" target="l8qZVdRTa9FN8ElazUqD-49">
          <mxGeometry relative="1" as="geometry">
            <mxPoint x="2460" y="906.25" as="targetPoint" />
          </mxGeometry>
        </mxCell>
        <mxCell id="l8qZVdRTa9FN8ElazUqD-3" value="" style="rounded=0;whiteSpace=wrap;html=1;dashed=1;fillColor=none;" vertex="1" parent="1">
          <mxGeometry x="1070" y="846.25" width="1330" height="120" as="geometry" />
        </mxCell>
        <mxCell id="l8qZVdRTa9FN8ElazUqD-4" style="edgeStyle=orthogonalEdgeStyle;rounded=0;orthogonalLoop=1;jettySize=auto;html=1;exitX=1;exitY=0.5;exitDx=0;exitDy=0;entryX=0;entryY=0.5;entryDx=0;entryDy=0;" edge="1" parent="1" target="l8qZVdRTa9FN8ElazUqD-7">
          <mxGeometry relative="1" as="geometry">
            <mxPoint x="390" y="388.13" as="sourcePoint" />
          </mxGeometry>
        </mxCell>
        <mxCell id="l8qZVdRTa9FN8ElazUqD-5" style="edgeStyle=orthogonalEdgeStyle;rounded=1;orthogonalLoop=1;jettySize=auto;html=1;entryX=0;entryY=0.75;entryDx=0;entryDy=0;" edge="1" parent="1" source="l8qZVdRTa9FN8ElazUqD-7" target="l8qZVdRTa9FN8ElazUqD-16">
          <mxGeometry relative="1" as="geometry">
            <Array as="points">
              <mxPoint x="529" y="534.25" />
            </Array>
            <mxPoint x="530" y="516.25" as="targetPoint" />
          </mxGeometry>
        </mxCell>
        <mxCell id="l8qZVdRTa9FN8ElazUqD-6" value="" style="edgeStyle=orthogonalEdgeStyle;rounded=0;orthogonalLoop=1;jettySize=auto;html=1;entryX=0;entryY=0.75;entryDx=0;entryDy=0;" edge="1" parent="1" source="l8qZVdRTa9FN8ElazUqD-7" target="l8qZVdRTa9FN8ElazUqD-17">
          <mxGeometry relative="1" as="geometry">
            <mxPoint x="760" y="386.25" as="targetPoint" />
            <Array as="points">
              <mxPoint x="827" y="386.25" />
            </Array>
          </mxGeometry>
        </mxCell>
        <mxCell id="l8qZVdRTa9FN8ElazUqD-7" value="Yeni şablon tanımlama mı? Güncelleme mi?" style="rhombus;whiteSpace=wrap;html=1;" vertex="1" parent="1">
          <mxGeometry x="469" y="330" width="121" height="116.25" as="geometry" />
        </mxCell>
        <mxCell id="l8qZVdRTa9FN8ElazUqD-8" value="Güncelleme" style="text;html=1;strokeColor=none;fillColor=none;align=center;verticalAlign=middle;whiteSpace=wrap;rounded=0;" vertex="1" parent="1">
          <mxGeometry x="530" y="476.25" width="80" height="20" as="geometry" />
        </mxCell>
        <mxCell id="l8qZVdRTa9FN8ElazUqD-9" value="Yeni Şablon" style="text;html=1;strokeColor=none;fillColor=none;align=center;verticalAlign=middle;whiteSpace=wrap;rounded=0;dashed=1;" vertex="1" parent="1">
          <mxGeometry x="590" y="366.25" width="100" height="20" as="geometry" />
        </mxCell>
        <mxCell id="l8qZVdRTa9FN8ElazUqD-10" value="&lt;font style=&quot;font-size: 11px&quot;&gt;&lt;b&gt;Harmoni Şablon Kodu Tanımlama Ekranı&lt;/b&gt;&lt;/font&gt;" style="text;html=1;strokeColor=none;fillColor=none;align=center;verticalAlign=middle;whiteSpace=wrap;rounded=0;" vertex="1" parent="1">
          <mxGeometry x="910" y="348.13" width="220" height="25" as="geometry" />
        </mxCell>
        <mxCell id="l8qZVdRTa9FN8ElazUqD-11" value="" style="edgeStyle=elbowEdgeStyle;elbow=vertical;" edge="1" parent="1" source="l8qZVdRTa9FN8ElazUqD-18" target="l8qZVdRTa9FN8ElazUqD-20">
          <mxGeometry relative="1" as="geometry">
            <mxPoint x="770" y="661.25" as="sourcePoint" />
            <mxPoint x="859" y="706.25" as="targetPoint" />
          </mxGeometry>
        </mxCell>
        <mxCell id="l8qZVdRTa9FN8ElazUqD-12" value="" style="edgeStyle=elbowEdgeStyle;elbow=vertical;exitX=0.5;exitY=1;exitDx=0;exitDy=0;entryX=0.5;entryY=0;entryDx=0;entryDy=0;" edge="1" parent="1" source="l8qZVdRTa9FN8ElazUqD-17" target="l8qZVdRTa9FN8ElazUqD-16">
          <mxGeometry relative="1" as="geometry">
            <mxPoint x="854.5" y="406.25" as="sourcePoint" />
            <mxPoint x="859.5" y="496.25" as="targetPoint" />
            <Array as="points">
              <mxPoint x="825" y="436.25" />
            </Array>
          </mxGeometry>
        </mxCell>
        <mxCell id="l8qZVdRTa9FN8ElazUqD-13" value="" style="edgeStyle=elbowEdgeStyle;elbow=vertical;" edge="1" parent="1" source="l8qZVdRTa9FN8ElazUqD-16" target="l8qZVdRTa9FN8ElazUqD-18">
          <mxGeometry relative="1" as="geometry">
            <mxPoint x="913" y="551.25" as="sourcePoint" />
            <mxPoint x="770" y="606.25" as="targetPoint" />
          </mxGeometry>
        </mxCell>
        <mxCell id="l8qZVdRTa9FN8ElazUqD-14" value="&lt;font style=&quot;font-size: 11px&quot;&gt;&lt;b&gt;Harmoni Mektup Parametre Tanımlama Ekranı&lt;/b&gt;&lt;/font&gt;" style="text;html=1;strokeColor=none;fillColor=none;align=center;verticalAlign=middle;whiteSpace=wrap;rounded=0;" vertex="1" parent="1">
          <mxGeometry x="920" y="476.25" width="260" height="20" as="geometry" />
        </mxCell>
        <mxCell id="l8qZVdRTa9FN8ElazUqD-15" value="&lt;font style=&quot;font-size: 11px&quot;&gt;&lt;b&gt;Geliştirme&lt;/b&gt;&lt;/font&gt;" style="text;html=1;strokeColor=none;fillColor=none;align=center;verticalAlign=middle;whiteSpace=wrap;rounded=0;" vertex="1" parent="1">
          <mxGeometry x="937" y="586.25" width="80" height="35" as="geometry" />
        </mxCell>
        <mxCell id="l8qZVdRTa9FN8ElazUqD-16" value="&lt;span style=&quot;text-align: left&quot;&gt;Mektup Basım sürecinde parametrik yönetilecek alanlar tanımlanır.&lt;/span&gt;" style="rounded=0;whiteSpace=wrap;html=1;fillColor=#FF9999;" vertex="1" parent="1">
          <mxGeometry x="810" y="496.25" width="215" height="50" as="geometry" />
        </mxCell>
        <mxCell id="l8qZVdRTa9FN8ElazUqD-17" value="&lt;span style=&quot;text-align: left&quot;&gt;Yeni şablon kodu tanımı yapılır.&lt;br&gt;&lt;/span&gt;" style="rounded=0;whiteSpace=wrap;html=1;fillColor=#FFF2CC;" vertex="1" parent="1">
          <mxGeometry x="827.5" y="368.13" width="180" height="40" as="geometry" />
        </mxCell>
        <mxCell id="l8qZVdRTa9FN8ElazUqD-18" value="&lt;span style=&quot;text-align: left&quot;&gt;Sistemde tanımlı olmayan sabit parametreler için geliştirme yapılarak parametreler koda eklenir.&lt;/span&gt;" style="rounded=0;whiteSpace=wrap;html=1;fillColor=#FFF2CC;" vertex="1" parent="1">
          <mxGeometry x="810" y="611.25" width="215" height="50" as="geometry" />
        </mxCell>
        <mxCell id="l8qZVdRTa9FN8ElazUqD-19" value="" style="edgeStyle=orthogonalEdgeStyle;rounded=1;orthogonalLoop=1;jettySize=auto;html=1;" edge="1" parent="1" source="l8qZVdRTa9FN8ElazUqD-20" target="l8qZVdRTa9FN8ElazUqD-24">
          <mxGeometry relative="1" as="geometry">
            <Array as="points" />
          </mxGeometry>
        </mxCell>
        <mxCell id="l8qZVdRTa9FN8ElazUqD-20" value="&lt;span style=&quot;text-align: left&quot;&gt;Mektup Basım sürecinde seçimli parametrik yönetilecek alanlar&amp;nbsp; NLS.NLS_LETTER_PRINTING_SELECTIONS tablosuna eklenir.&lt;br&gt;&lt;/span&gt;" style="rounded=0;whiteSpace=wrap;html=1;fillColor=#FFF2CC;" vertex="1" parent="1">
          <mxGeometry x="780" y="731.25" width="275" height="90" as="geometry" />
        </mxCell>
        <mxCell id="l8qZVdRTa9FN8ElazUqD-21" value="&lt;font size=&quot;1&quot;&gt;&lt;span style=&quot;font-size: 11px&quot;&gt;&lt;b&gt;cls_update&lt;/b&gt;&lt;/span&gt;&lt;/font&gt;" style="text;html=1;strokeColor=none;fillColor=none;align=center;verticalAlign=middle;whiteSpace=wrap;rounded=0;" vertex="1" parent="1">
          <mxGeometry x="930" y="711.25" width="140" height="20" as="geometry" />
        </mxCell>
        <mxCell id="l8qZVdRTa9FN8ElazUqD-22" value="" style="edgeStyle=orthogonalEdgeStyle;rounded=1;orthogonalLoop=1;jettySize=auto;html=1;" edge="1" parent="1" source="l8qZVdRTa9FN8ElazUqD-24" target="l8qZVdRTa9FN8ElazUqD-31">
          <mxGeometry relative="1" as="geometry">
            <mxPoint x="918" y="1056.25" as="targetPoint" />
            <Array as="points">
              <mxPoint x="918" y="1006.25" />
              <mxPoint x="916" y="1006.25" />
            </Array>
          </mxGeometry>
        </mxCell>
        <mxCell id="l8qZVdRTa9FN8ElazUqD-23" style="edgeStyle=orthogonalEdgeStyle;rounded=1;orthogonalLoop=1;jettySize=auto;html=1;entryX=0;entryY=0.5;entryDx=0;entryDy=0;" edge="1" parent="1" source="l8qZVdRTa9FN8ElazUqD-24" target="l8qZVdRTa9FN8ElazUqD-39">
          <mxGeometry relative="1" as="geometry" />
        </mxCell>
        <mxCell id="l8qZVdRTa9FN8ElazUqD-24" value="Elektronik Özel Mektup mu?" style="rhombus;whiteSpace=wrap;html=1;" vertex="1" parent="1">
          <mxGeometry x="863" y="866.25" width="109" height="80" as="geometry" />
        </mxCell>
        <mxCell id="l8qZVdRTa9FN8ElazUqD-25" value="&lt;b&gt;Evet&lt;/b&gt;" style="text;html=1;strokeColor=none;fillColor=none;align=center;verticalAlign=middle;whiteSpace=wrap;rounded=0;dashed=1;" vertex="1" parent="1">
          <mxGeometry x="910" y="996.25" width="40" height="20" as="geometry" />
        </mxCell>
        <mxCell id="l8qZVdRTa9FN8ElazUqD-26" value="&lt;b&gt;Hayır&lt;/b&gt;" style="text;html=1;align=center;verticalAlign=middle;resizable=0;points=[];autosize=1;" vertex="1" parent="1">
          <mxGeometry x="975" y="906.25" width="50" height="20" as="geometry" />
        </mxCell>
        <mxCell id="l8qZVdRTa9FN8ElazUqD-27" style="edgeStyle=orthogonalEdgeStyle;rounded=1;orthogonalLoop=1;jettySize=auto;html=1;exitX=0.5;exitY=1;exitDx=0;exitDy=0;entryX=0.5;entryY=0;entryDx=0;entryDy=0;" edge="1" parent="1" source="l8qZVdRTa9FN8ElazUqD-32" target="l8qZVdRTa9FN8ElazUqD-33">
          <mxGeometry relative="1" as="geometry">
            <mxPoint x="242.5666666666666" y="2071.25" as="targetPoint" />
            <mxPoint x="917.4666666666665" y="1246.25" as="sourcePoint" />
          </mxGeometry>
        </mxCell>
        <mxCell id="l8qZVdRTa9FN8ElazUqD-28" value="&lt;font style=&quot;font-size: 11px&quot;&gt;&lt;b&gt;&lt;font style=&quot;font-size: 11px&quot;&gt;Notepad&lt;/font&gt;&lt;/b&gt;++&lt;/font&gt;" style="text;html=1;strokeColor=none;fillColor=none;align=center;verticalAlign=middle;whiteSpace=wrap;rounded=0;" vertex="1" parent="1">
          <mxGeometry x="970" y="1046.25" width="40" height="20" as="geometry" />
        </mxCell>
        <mxCell id="l8qZVdRTa9FN8ElazUqD-29" value="&lt;font style=&quot;font-size: 11px&quot;&gt;&lt;font style=&quot;font-size: 11px&quot;&gt;&lt;b&gt;Harmoni Belge Tarama&amp;nbsp;&lt;/b&gt;&lt;b&gt;Ekranı&lt;/b&gt;&lt;/font&gt;&amp;nbsp;&lt;/font&gt;" style="text;html=1;strokeColor=none;fillColor=none;align=left;verticalAlign=middle;whiteSpace=wrap;rounded=0;" vertex="1" parent="1">
          <mxGeometry x="930" y="1136.25" width="220" height="20" as="geometry" />
        </mxCell>
        <mxCell id="l8qZVdRTa9FN8ElazUqD-30" value="" style="edgeStyle=orthogonalEdgeStyle;rounded=1;orthogonalLoop=1;jettySize=auto;html=1;" edge="1" parent="1" source="l8qZVdRTa9FN8ElazUqD-31" target="l8qZVdRTa9FN8ElazUqD-32">
          <mxGeometry relative="1" as="geometry" />
        </mxCell>
        <mxCell id="l8qZVdRTa9FN8ElazUqD-31" value="&lt;span style=&quot;text-align: left&quot;&gt;HTML şablonu oluşturulur.&amp;nbsp;&lt;/span&gt;&lt;div style=&quot;padding: 0px ; margin: 0px ; text-align: left&quot;&gt;&lt;br style=&quot;padding: 0px ; margin: 0px&quot;&gt;&lt;/div&gt;" style="rounded=0;whiteSpace=wrap;html=1;fillColor=#FFF2CC;" vertex="1" parent="1">
          <mxGeometry x="809.25" y="1066.25" width="212.5" height="40" as="geometry" />
        </mxCell>
        <mxCell id="l8qZVdRTa9FN8ElazUqD-32" value="&lt;br style=&quot;padding: 0px ; margin: 0px ; text-align: left&quot;&gt;&lt;span style=&quot;text-align: left&quot;&gt;Oluşturulan HTML dosyası iş birimleri tarafından sisteme yüklenir.&lt;br&gt;&lt;/span&gt;" style="rounded=0;whiteSpace=wrap;html=1;fillColor=#FF9999;" vertex="1" parent="1">
          <mxGeometry x="790.5" y="1156.25" width="250" height="60" as="geometry" />
        </mxCell>
        <mxCell id="l8qZVdRTa9FN8ElazUqD-33" value="&lt;br style=&quot;padding: 0px ; margin: 0px ; text-align: left&quot;&gt;&lt;span style=&quot;text-align: left&quot;&gt;Sisteme dosyanın yüklenmesi ile oluşan şablon kodu sisteme&amp;nbsp;&lt;/span&gt;&lt;span style=&quot;text-align: left&quot;&gt;kaydedilir.&lt;br&gt;&lt;/span&gt;&lt;span style=&quot;text-align: left&quot;&gt;&lt;br&gt;&lt;/span&gt;" style="rounded=0;whiteSpace=wrap;html=1;fillColor=#FFF2CC;" vertex="1" parent="1">
          <mxGeometry x="790.5" y="1276.25" width="250" height="60" as="geometry" />
        </mxCell>
        <mxCell id="l8qZVdRTa9FN8ElazUqD-34" value="&lt;b style=&quot;color: rgb(0 , 0 , 0) ; font-family: &amp;#34;helvetica&amp;#34; ; font-style: normal ; letter-spacing: normal ; text-align: left ; text-indent: 0px ; text-transform: none ; word-spacing: 0px ; background-color: rgb(248 , 249 , 250)&quot;&gt;&lt;font style=&quot;font-size: 11px&quot;&gt;Mektup Şablon Kodu Tanımlama Ekranı&lt;/font&gt;&lt;/b&gt;" style="text;whiteSpace=wrap;html=1;" vertex="1" parent="1">
          <mxGeometry x="930" y="1256.25" width="290" height="30" as="geometry" />
        </mxCell>
        <mxCell id="l8qZVdRTa9FN8ElazUqD-35" value="&lt;b&gt;&lt;font style=&quot;font-size: 11px&quot;&gt;DYS&lt;/font&gt;&lt;/b&gt;" style="text;html=1;strokeColor=none;fillColor=none;align=center;verticalAlign=middle;whiteSpace=wrap;rounded=0;" vertex="1" parent="1">
          <mxGeometry x="2318" y="858.75" width="72" height="20" as="geometry" />
        </mxCell>
        <mxCell id="l8qZVdRTa9FN8ElazUqD-36" value="&lt;b&gt;&lt;font style=&quot;font-size: 11px&quot;&gt;Mektup Parametre Tanımlama Ekranı&lt;/font&gt;&lt;/b&gt;" style="text;html=1;strokeColor=none;fillColor=none;align=center;verticalAlign=middle;whiteSpace=wrap;rounded=0;" vertex="1" parent="1">
          <mxGeometry x="1110" y="866.25" width="270" height="20" as="geometry" />
        </mxCell>
        <mxCell id="l8qZVdRTa9FN8ElazUqD-37" value="&lt;b&gt;&lt;font style=&quot;font-size: 11px&quot;&gt;JIRA&lt;/font&gt;&lt;/b&gt;" style="text;html=1;strokeColor=none;fillColor=none;align=center;verticalAlign=middle;whiteSpace=wrap;rounded=0;" vertex="1" parent="1">
          <mxGeometry x="1980" y="853.75" width="40" height="20" as="geometry" />
        </mxCell>
        <mxCell id="l8qZVdRTa9FN8ElazUqD-38" style="edgeStyle=orthogonalEdgeStyle;rounded=1;orthogonalLoop=1;jettySize=auto;html=1;" edge="1" parent="1" source="l8qZVdRTa9FN8ElazUqD-39">
          <mxGeometry relative="1" as="geometry">
            <mxPoint x="1380" y="906.25" as="targetPoint" />
          </mxGeometry>
        </mxCell>
        <mxCell id="l8qZVdRTa9FN8ElazUqD-39" value="&lt;br style=&quot;padding: 0px ; margin: 0px ; text-align: left&quot;&gt;&lt;span style=&quot;text-align: left&quot;&gt;Parametre alanları için aynı ekranda xml oluşturulur.&lt;br&gt;&lt;/span&gt;" style="rounded=0;whiteSpace=wrap;html=1;fillColor=#FFF2CC;" vertex="1" parent="1">
          <mxGeometry x="1100" y="886.25" width="212.5" height="40" as="geometry" />
        </mxCell>
        <mxCell id="l8qZVdRTa9FN8ElazUqD-40" style="edgeStyle=orthogonalEdgeStyle;rounded=1;orthogonalLoop=1;jettySize=auto;html=1;entryX=0;entryY=0.5;entryDx=0;entryDy=0;" edge="1" parent="1" source="l8qZVdRTa9FN8ElazUqD-41" target="l8qZVdRTa9FN8ElazUqD-44">
          <mxGeometry relative="1" as="geometry">
            <mxPoint x="1650" y="906.25" as="targetPoint" />
          </mxGeometry>
        </mxCell>
        <mxCell id="l8qZVdRTa9FN8ElazUqD-41" value="&lt;span style=&quot;text-align: left&quot;&gt;İş birimi tarafından iletilen mektup metni Word&#39;de şablon olarak&amp;nbsp;hazırlanır.&lt;/span&gt;&lt;span style=&quot;text-align: left&quot;&gt;&lt;br&gt;&lt;/span&gt;" style="rounded=0;whiteSpace=wrap;html=1;fillColor=#FFF2CC;" vertex="1" parent="1">
          <mxGeometry x="1380" y="886.25" width="212.5" height="40" as="geometry" />
        </mxCell>
        <mxCell id="l8qZVdRTa9FN8ElazUqD-42" value="&lt;font size=&quot;1&quot;&gt;&lt;b style=&quot;font-size: 11px&quot;&gt;WORD&lt;/b&gt;&lt;/font&gt;" style="text;html=1;strokeColor=none;fillColor=none;align=center;verticalAlign=middle;whiteSpace=wrap;rounded=0;" vertex="1" parent="1">
          <mxGeometry x="1537.5" y="866.25" width="40" height="20" as="geometry" />
        </mxCell>
        <mxCell id="l8qZVdRTa9FN8ElazUqD-43" style="edgeStyle=orthogonalEdgeStyle;rounded=1;orthogonalLoop=1;jettySize=auto;html=1;entryX=0;entryY=0.5;entryDx=0;entryDy=0;" edge="1" parent="1" source="l8qZVdRTa9FN8ElazUqD-44" target="l8qZVdRTa9FN8ElazUqD-45">
          <mxGeometry relative="1" as="geometry">
            <mxPoint x="2200" y="931.25" as="targetPoint" />
          </mxGeometry>
        </mxCell>
        <mxCell id="l8qZVdRTa9FN8ElazUqD-44" value="&lt;span style=&quot;text-align: left&quot;&gt;Belge Üretme ve Geliştirme Jira taskı açılır.Şablon örneği ve parametreler için xml dosyası&amp;nbsp;&lt;/span&gt;&lt;br style=&quot;padding: 0px ; margin: 0px ; text-align: left&quot;&gt;&lt;span style=&quot;text-align: left&quot;&gt;talebe eklenir.&lt;br&gt;&lt;/span&gt;&lt;span style=&quot;text-align: left&quot;&gt;&lt;br&gt;&lt;/span&gt;" style="rounded=0;whiteSpace=wrap;html=1;fillColor=#FFF2CC;" vertex="1" parent="1">
          <mxGeometry x="1700" y="873.75" width="310" height="62.5" as="geometry" />
        </mxCell>
        <mxCell id="l8qZVdRTa9FN8ElazUqD-45" value="&lt;span style=&quot;text-align: left&quot;&gt;Döküman Yönetim Sisteminde tanımlar live ortama taşınır.&lt;/span&gt;&lt;span style=&quot;text-align: left&quot;&gt;&lt;br&gt;&lt;/span&gt;" style="rounded=0;whiteSpace=wrap;html=1;fillColor=#D5E8D4;" vertex="1" parent="1">
          <mxGeometry x="2090" y="877.5" width="300" height="55" as="geometry" />
        </mxCell>
        <mxCell id="l8qZVdRTa9FN8ElazUqD-46" value="Manual Mektup Tanımlama" style="text;html=1;strokeColor=none;fillColor=none;align=center;verticalAlign=middle;whiteSpace=wrap;rounded=0;dashed=1;" vertex="1" parent="1">
          <mxGeometry x="1040.5" y="821.25" width="210" height="20" as="geometry" />
        </mxCell>
        <mxCell id="l8qZVdRTa9FN8ElazUqD-47" value="" style="edgeStyle=orthogonalEdgeStyle;rounded=1;orthogonalLoop=1;jettySize=auto;html=1;" edge="1" parent="1" source="l8qZVdRTa9FN8ElazUqD-1" target="l8qZVdRTa9FN8ElazUqD-39">
          <mxGeometry relative="1" as="geometry">
            <mxPoint x="950" y="1416.25" as="targetPoint" />
            <Array as="points">
              <mxPoint x="950" y="1376.25" />
              <mxPoint x="1166" y="1376.25" />
            </Array>
          </mxGeometry>
        </mxCell>
        <mxCell id="l8qZVdRTa9FN8ElazUqD-48" value="Elektronik Özel Mektup Tanımlama" style="text;html=1;strokeColor=none;fillColor=none;align=center;verticalAlign=middle;whiteSpace=wrap;rounded=0;dashed=1;" vertex="1" parent="1">
          <mxGeometry x="700" y="1026.25" width="210" height="20" as="geometry" />
        </mxCell>
        <mxCell id="l8qZVdRTa9FN8ElazUqD-49" value="&lt;font color=&quot;#ffffff&quot;&gt;END&lt;/font&gt;" style="ellipse;html=1;shape=endState;fillColor=#000000;strokeColor=#ff0000;dashed=1;" vertex="1" parent="1">
          <mxGeometry x="2460" y="890" width="50" height="33.25" as="geometry" />
        </mxCell>
        <mxCell id="l8qZVdRTa9FN8ElazUqD-50" value="&lt;font color=&quot;#ffffff&quot;&gt;START&lt;/font&gt;" style="ellipse;html=1;shape=endState;fillColor=#000000;strokeColor=#ff0000;dashed=1;" vertex="1" parent="1">
          <mxGeometry x="340" y="373.13" width="50" height="33.25" as="geometry" />
        </mxCell>
      </root>
    </mxGraphModel>
  </diagram>
</mxfile>
